<svg width="179" height="179" viewBox="0 0 179 179" fill="none" xmlns="http://www.w3.org/2000/svg">
<path d="M29.7277 66.5659L29.7276 66.5659C28.6608 64.699 28.4644 61.9611 29.1157 59.0032C29.7643 56.0582 31.2395 52.9666 33.4153 50.4399C35.5893 47.9152 38.4479 45.9704 41.8639 45.2768C45.2672 44.5858 49.2755 45.1259 53.7834 47.6547C53.7865 47.6571 53.79 47.6596 53.7936 47.6622C53.8013 47.6678 53.8101 47.6742 53.82 47.6813C53.8608 47.7106 53.9203 47.7525 53.998 47.8052C54.1536 47.9105 54.3824 48.0591 54.6824 48.237C55.2823 48.5927 56.1669 49.0662 57.3184 49.5461C59.6216 50.506 62.993 51.492 67.2861 51.6124C75.8869 51.8538 88.103 48.6201 102.77 34.9304C109.174 28.954 115.222 26.881 120.678 27.3286C126.148 27.7773 131.121 30.7673 135.343 35.1148C139.564 39.4608 143.002 45.1313 145.393 50.8569C147.785 56.5857 149.114 62.332 149.151 66.818C149.234 77.0394 144.35 86.3689 139.812 95.0382C139.164 96.277 138.523 97.5023 137.904 98.7149C135.445 103.534 133.339 108.163 132.663 112.583C131.982 117.035 132.749 121.281 136.018 125.293C139.038 129 139.069 133.303 137.057 137.411C135.035 141.54 130.951 145.445 125.812 148.202C115.53 153.718 101.261 154.531 91.2802 143.643C84.9208 136.706 79.6811 132.867 75.1511 131.046C70.5991 129.216 66.7931 129.436 63.3492 130.548C60.7052 131.402 58.259 132.791 55.8807 134.141C55.1975 134.529 54.5199 134.914 53.8448 135.282C50.7891 136.947 47.745 138.298 44.2659 138.298C41.8521 138.298 38.6925 136.781 35.4942 134.092C32.315 131.419 29.1713 127.65 26.7902 123.285C22.024 114.549 20.3646 103.547 27.3896 94.18C33.4712 86.0712 34.9313 80.5704 34.37 76.331C34.0903 74.2181 33.3127 72.4579 32.4159 70.8861C31.9686 70.1021 31.4887 69.3602 31.027 68.6485L30.9933 68.5965C30.5412 67.8996 30.1091 67.2335 29.7277 66.5659Z" fill="#FFAAAA" stroke="#872D2D"/>
<path d="M131.112 79.4216C132.144 79.805 133.272 79.8305 134.344 79.5843C138.838 78.5527 154.292 75.8213 151.606 87.7962C151.022 90.1721 141.971 103.478 154.86 108.335C155.805 108.695 156.804 108.892 157.814 108.916C161.783 108.998 169.647 108.061 172.938 104.711C176.914 100.664 172.57 102.583 172.57 102.583C172.57 102.583 157.455 109.179 152.116 102.181C151.521 101.402 151.143 100.271 151.035 99.2978C150.847 97.6098 151.596 95.3792 152.581 93.4374C153.914 90.8094 160.311 78.9872 146.421 75.5433C143.221 74.7813 138.574 74.0967 132.581 76.6198C129.086 78.0913 129.86 78.9563 131.112 79.4216Z" fill="#872D2D"/>
<path d="M134.205 75.0083L130.182 76.514C128.793 77.0338 128.089 78.581 128.609 79.9698L128.808 80.5026C129.328 81.8914 130.875 82.5959 132.264 82.0761L136.287 80.5704C137.676 80.0506 138.38 78.5034 137.861 77.1146L137.661 76.5818C137.141 75.193 135.594 74.4885 134.205 75.0083Z" fill="#E50E0E"/>
<path d="M109.51 79.3652L96.2417 84.331C95.5473 84.5909 95.1951 85.3645 95.4549 86.0589L95.5072 86.1985C95.7671 86.8929 96.5407 87.2452 97.2351 86.9853L110.503 82.0195C111.198 81.7596 111.55 80.986 111.29 80.2916L111.238 80.1519C110.978 79.4576 110.204 79.1053 109.51 79.3652Z" fill="black"/>
<path d="M113.213 89.2593L99.9448 94.2252C99.2504 94.4851 98.8982 95.2587 99.1581 95.9531L99.2103 96.0927C99.4702 96.7871 100.244 97.1394 100.938 96.8795L114.207 91.9136C114.901 91.6537 115.253 90.8801 114.993 90.1857L114.941 90.0461C114.681 89.3517 113.908 88.9994 113.213 89.2593Z" fill="black"/>
<path d="M125.463 72.613L114.709 76.6377C113.321 77.1575 112.616 78.7047 113.136 80.0935L116.807 89.9034C117.327 91.2922 118.874 91.9967 120.263 91.4769L131.017 87.4522C132.406 86.9325 133.11 85.3852 132.59 83.9964L128.919 74.1865C128.399 72.7977 126.852 72.0932 125.463 72.613Z" fill="#F95858"/>
<path d="M115.821 75.1866L105.067 79.2113C103.678 79.7311 102.974 81.2783 103.493 82.6671L107.874 94.3707C108.393 95.7595 109.941 96.464 111.329 95.9443L122.083 91.9196C123.472 91.3998 124.176 89.8526 123.657 88.4638L119.276 76.7601C118.757 75.3713 117.209 74.6669 115.821 75.1866Z" fill="#FF6969"/>
<path d="M117.504 72.8114L117.42 72.843C116.494 73.1895 116.024 74.221 116.371 75.1468L122.507 91.5423C122.853 92.4682 123.885 92.9379 124.811 92.5914L124.895 92.5598C125.821 92.2133 126.291 91.1818 125.944 90.2559L119.808 73.8604C119.461 72.9346 118.43 72.4649 117.504 72.8114Z" fill="#F22020"/>
<path d="M7.85143 83.294C7.85143 83.294 29.4485 77.2247 26.313 91.2079C25.7684 93.4204 17.9301 104.813 27.2668 110.283C29.2716 111.457 31.5851 111.977 33.9085 111.965C38.0741 111.944 44.6778 111.142 47.6445 108.122C51.6204 104.075 47.2768 105.994 47.2768 105.994C47.2768 105.994 34.8733 111.096 28.4921 107.029C26.3132 105.64 25.3256 102.952 25.9173 100.437C26.2197 99.1872 26.6802 97.9815 27.2877 96.8486C28.6755 94.2494 35.018 82.3984 21.1276 78.9544C17.9278 78.1924 13.2803 77.5079 7.28785 80.031C1.29538 82.554 7.85143 83.294 7.85143 83.294Z" fill="#872D2D"/>
<path d="M50.5486 102.865L46.5254 104.371C45.1366 104.891 44.4321 106.438 44.9519 107.827L45.1513 108.36C45.6711 109.748 47.2183 110.453 48.6071 109.933L52.6303 108.427C54.0191 107.908 54.7236 106.36 54.2038 104.972L54.0044 104.439C53.4846 103.05 51.9374 102.345 50.5486 102.865Z" fill="#E50E0E"/>
<path d="M57.3459 96.2458L51.3833 98.4774C49.9945 98.9972 49.29 100.544 49.8098 101.933L52.6849 109.615C53.2047 111.004 54.7519 111.709 56.1407 111.189L62.1033 108.957C63.4921 108.437 64.1966 106.89 63.6768 105.501L60.8017 97.8193C60.2819 96.4305 58.7347 95.726 57.3459 96.2458Z" fill="#F95858"/>
<path d="M67.2723 90.3313L58.3804 93.6592C56.9916 94.179 56.2871 95.7262 56.8069 97.115L61.1871 108.819C61.7069 110.207 63.2541 110.912 64.6429 110.392L73.5348 107.064C74.9236 106.544 75.628 104.997 75.1083 103.608L70.728 91.9048C70.2083 90.516 68.6611 89.8115 67.2723 90.3313Z" fill="#FF6969"/>
<path d="M69.1558 87.9075L69.0715 87.939C68.1456 88.2856 67.6759 89.317 68.0224 90.2429L74.1587 106.638C74.5052 107.564 75.5367 108.034 76.4625 107.687L76.5469 107.656C77.4727 107.309 77.9424 106.278 77.5959 105.352L71.4596 88.9565C71.1131 88.0306 70.0817 87.561 69.1558 87.9075Z" fill="#F22020"/>
<path d="M91.8617 77.4622C91.5415 77.4267 91.2475 77.2683 91.0417 77.0204C90.836 76.7725 90.7344 76.4545 90.7583 76.1332L91.4218 64.0149C91.4614 63.291 92.0726 62.741 92.7664 62.805L93.733 62.8945C94.4267 62.9585 94.9233 63.6105 94.8263 64.3293L93.196 76.3581C93.1585 76.6785 92.9988 76.9721 92.7503 77.1778C92.5018 77.3835 92.1835 77.4853 91.8617 77.4622V77.4622Z" fill="#F94141"/>
<path d="M86.1329 78.5071C86.0333 78.5364 85.9289 78.5458 85.8257 78.5347C85.7225 78.5236 85.6225 78.4923 85.5314 78.4426C85.4403 78.3928 85.3598 78.3256 85.2947 78.2448C85.2296 78.164 85.181 78.0711 85.1517 77.9715L82.7825 70.4333C82.7136 70.2189 82.7325 69.9859 82.8352 69.7855C82.9378 69.5851 83.1158 69.4336 83.33 69.3642L83.9435 69.1791C84.0487 69.1484 84.1592 69.1398 84.2679 69.154C84.3766 69.1681 84.4813 69.2046 84.5752 69.2612C84.6691 69.3178 84.7502 69.3933 84.8135 69.4828C84.8767 69.5723 84.9208 69.674 84.9427 69.7814L86.6987 77.5048C86.7477 77.7124 86.7166 77.9309 86.6118 78.1166C86.5069 78.3023 86.3359 78.4418 86.1329 78.5071V78.5071Z" fill="#F94141"/>
<path d="M82.9359 82.8542C82.5114 83.3802 81.6577 83.3739 81.0005 82.84L69.3324 73.36C68.6354 72.7937 68.4298 71.8564 68.8801 71.2988L69.5078 70.5212C69.9582 69.9634 70.8831 70.0091 71.5427 70.6218L82.5831 80.8795C83.2049 81.4571 83.3604 82.3282 82.9359 82.8542Z" fill="#F94141"/>
<path d="M88.3294 107.34C88.6299 107.456 88.8736 107.684 89.0093 107.977C89.145 108.269 89.162 108.602 89.0567 108.907L85.3204 120.453C85.0972 121.143 84.3658 121.518 83.7114 121.28L82.7993 120.947C82.1449 120.708 81.8309 119.95 82.1086 119.28L86.7569 108.067C86.8749 107.766 87.1043 107.523 87.3973 107.388C87.6902 107.252 88.0241 107.235 88.3294 107.34V107.34Z" fill="#F94141"/>
<path d="M94.1347 107.793C94.2385 107.79 94.3418 107.808 94.4388 107.845C94.5357 107.882 94.6245 107.938 94.6999 108.009C94.7753 108.08 94.8359 108.166 94.8782 108.261C94.9206 108.355 94.9438 108.458 94.9467 108.561L95.3121 116.455C95.324 116.68 95.2462 116.9 95.0958 117.068C94.9453 117.235 94.7346 117.336 94.5097 117.349L93.8692 117.371C93.7596 117.374 93.6506 117.354 93.5491 117.312C93.4476 117.271 93.3558 117.209 93.2795 117.13C93.2031 117.051 93.1439 116.958 93.1056 116.855C93.0673 116.752 93.0508 116.643 93.0569 116.533L93.332 108.618C93.3377 108.404 93.4234 108.201 93.5722 108.048C93.7209 107.896 93.9218 107.804 94.1347 107.793V107.793Z" fill="#F94141"/>
<path d="M98.3363 104.406C98.8812 104.006 99.7049 104.23 100.204 104.914L109.064 117.06C109.593 117.785 109.553 118.744 108.975 119.168L108.169 119.759C107.591 120.184 106.709 119.903 106.227 119.143L98.1724 106.405C97.7195 105.688 97.7915 104.807 98.3363 104.406Z" fill="#F94141"/>
</svg>
