<svg width="110" height="90" viewBox="0 0 110 90" fill="none" xmlns="http://www.w3.org/2000/svg">
<rect width="110" height="90" rx="8" fill="#7286D3"/>
<path d="M62.9874 32.9979H46.9957C45.9354 32.9979 44.9185 33.4191 44.1688 34.1689C43.419 34.9186 42.9978 35.9355 42.9978 36.9958V52.9875C42.9978 54.0478 43.419 55.0647 44.1688 55.8145C44.9185 56.5642 45.9354 56.9854 46.9957 56.9854H62.9874C64.0477 56.9854 65.0646 56.5642 65.8143 55.8145C66.5641 55.0647 66.9853 54.0478 66.9853 52.9875V36.9958C66.9853 35.9355 66.5641 34.9186 65.8143 34.1689C65.0646 33.4191 64.0477 32.9979 62.9874 32.9979ZM46.9957 35.6632H62.9874C63.3408 35.6632 63.6798 35.8036 63.9297 36.0535C64.1796 36.3034 64.32 36.6424 64.32 36.9958V48.1367L60.0556 44.4986C59.3949 43.9549 58.5658 43.6577 57.7101 43.6577C56.8545 43.6577 56.0254 43.9549 55.3647 44.4986L45.6631 52.5877V36.9958C45.6631 36.6424 45.8035 36.3034 46.0534 36.0535C46.3033 35.8036 46.6423 35.6632 46.9957 35.6632Z" fill="#FFFDF9"/>
<path d="M49.6611 42.3264C50.7651 42.3264 51.66 41.4314 51.66 40.3274C51.66 39.2234 50.7651 38.3285 49.6611 38.3285C48.5571 38.3285 47.6621 39.2234 47.6621 40.3274C47.6621 41.4314 48.5571 42.3264 49.6611 42.3264Z" fill="#FFFDF9"/>
</svg>
